<?xml version="1.0" encoding="utf-8"?>
<!-- Svg Vector Icons : http://www.onlinewebfonts.com/icon -->
<!DOCTYPE svg PUBLIC "-//W3C//DTD SVG 1.1//EN" "http://www.w3.org/Graphics/SVG/1.1/DTD/svg11.dtd">
<svg version="1.1" xmlns="http://www.w3.org/2000/svg" xmlns:xlink="http://www.w3.org/1999/xlink" x="0px" y="0px" viewBox="0 0 256 256" enable-background="new 0 0 256 256" xml:space="preserve">
<metadata> Svg Vector Icons : http://www.onlinewebfonts.com/icon </metadata>
<g><g><g><path fill="#000000" d="M40,44.1L10,75.4v79.7v79.7l1.1,2.4c1.3,2.8,2.2,3.7,5,4.9c2.1,1,2.7,1,83.1,1h80.9l2.4-1.2c2.6-1.3,4.6-3.7,5.4-6.5c0.3-1,0.5-13.8,0.5-32.5V172l7-5.2c10.7-7.9,24.8-19,24.7-19.5c-0.1-0.5-17.2-22.2-17.5-22.2c-0.1,0-3.3,2.4-7,5.4c-3.8,3-6.9,5.5-7,5.5c-0.1,0-0.2-26.1-0.3-57.9l-0.1-58l-1.4-2.3c-1-1.7-2.1-2.7-4-3.7l-2.5-1.3h-55.1H70L40,44.1z M180.3,21.2l1,1.3l0,60v60l-6.3,5.2c-27.6,23.2-47.4,44.8-47.4,51.8c0,2.1,1.5,4,3.6,4.4c5.4,1,24.7-8.9,45.5-23.5c2.3-1.6,4.3-3,4.4-3c0.1,0,0.2,12.6,0.2,28c0,27.6,0,28-1,29.3l-1,1.2H99.2c-79.5,0-80.1,0-81.1-1c-1-1-1-1.6-1-78.7V78.5h25.6c23.8,0,25.7,0,27.2-0.9c0.9-0.5,2-1.6,2.5-2.5c0.8-1.5,0.9-3.4,0.9-28.4V20h53h53L180.3,21.2z"/><path fill="#000000" d="M105.1,39.5c-2.3,1.2-4.1,3.4-4.7,5.7c-0.3,1.2-0.5,10.5-0.4,27.2l0.1,25.4l1.3,2.2c1,1.6,2,2.5,3.8,3.4l2.5,1.2h21.6c13.5,0,22.4-0.2,23.5-0.5c2.3-0.7,4.5-2.5,5.7-4.8c0.9-1.8,0.9-2.8,0.8-28.4l-0.1-26.5l-1.1-1.7c-0.6-0.9-1.9-2.2-2.8-2.8l-1.7-1.1l-23.3-0.1C107.9,38.6,106.7,38.6,105.1,39.5z M152,45.9l1.2,1.1v24.5c0,23.9,0,24.5-1,25.5c-0.9,0.9-1.6,1-22.5,1c-19.3,0-21.6-0.1-22.4-0.8c-0.8-0.7-0.9-2.1-0.9-25.6c0-25.6,0-25.9,1.9-26.5c0.4-0.1,10.1-0.3,21.6-0.3l20.8,0L152,45.9z"/><path fill="#000000" d="M125.8,48.3c-1.8,0.8-4.3,3.4-4.9,5.2c-1.4,3.6,0,8.8,2.9,10.9c4.3,3.2,8.9,2.9,12.6-0.8c6.1-6,2-16-6.6-16C128.4,47.6,126.7,47.9,125.8,48.3z"/><path fill="#000000" d="M116.2,67.6c-1.8,1-2.5,2.3-2.5,4.1c0,2.3,3.3,20.4,4,21.9c1,2.1,2.8,2.5,11.9,2.5c8.3,0,10.8-0.4,11.9-2.1c1-1.6,4.6-22.3,4.1-23.7c-0.9-2.3-2.7-3.4-5.9-3.6l-3-0.2l-3.5,4.1l-3.5,4.1l-1.3-1.5c-0.7-0.8-2.2-2.7-3.4-4.1c-2.1-2.5-2.2-2.6-4.8-2.6C118.6,66.6,117.3,66.9,116.2,67.6z"/><path fill="#000000" d="M38.9,117.9c-0.2,0.1-0.3,1.8-0.3,3.6v3.2H99h60.4v-3.6v-3.6H99.3C66.2,117.5,39,117.7,38.9,117.9z"/><path fill="#000000" d="M38.5,163.9v3.6h48.8h48.8v-3.6v-3.6H87.3H38.5V163.9L38.5,163.9z"/><path fill="#000000" d="M38.7,203.4c-0.1,0.3-0.2,2-0.1,3.7l0.1,3h37.3h37.3l0.1-3.7l0.1-3.7H76.4C45.3,202.7,38.9,202.8,38.7,203.4z"/><path fill="#000000" d="M228.4,107.9c-1.7,0.8-5.1,2.6-7.6,4.2c-4.4,2.8-15.2,10.6-15.2,10.9c0,0.3,17.2,21.8,17.6,22c1.2,0.4,17.5-14.7,20.2-18.8c3.8-5.6,3.6-12.1-0.4-16.2C239.2,106.4,233.7,105.6,228.4,107.9z"/><path fill="#000000" d="M219.6,150.4c-9.9,7.9-18.6,14.8-19.4,15.6c-2.4,2.2-1.4,5.8,1.7,5.8c0.7,0,2.1-0.7,3.3-1.6c5.4-4.1,34.5-27.3,35.7-28.3c1.6-1.5,1.9-4.5,0.4-5.3C238.8,135.3,238.2,135.6,219.6,150.4z"/></g></g></g>
</svg>